<svg height="512" viewBox="0 0 128 128" width="512" xmlns="http://www.w3.org/2000/svg"><g><path d="m116.878 67.146c-9.509-21.458-20.232-28.431-34.76-22.619a14.945 14.945 0 0 0 -6.175 4.473h-7.193v-7.59a1.749 1.749 0 0 0 -1.75-1.75h-1.25v-33.16a1.75 1.75 0 0 0 -3.5 0v33.16h-1.25a1.749 1.749 0 0 0 -1.75 1.75v7.59h-7.193a14.945 14.945 0 0 0 -6.175-4.473c-14.528-5.808-25.25 1.161-34.76 22.619-7.682 17.333-7.674 36.588-3.696 46.654 1.7 4.293 4.157 7.224 7.12 8.479a12.38 12.38 0 0 0 4.828.979c8.605 0 17.1-8.786 22.7-18.11a10.261 10.261 0 0 1 8.836-5.063h26.176a10.261 10.261 0 0 1 8.836 5.063c6.655 11.07 17.381 21.381 27.539 17.128 2.956-1.252 5.416-4.183 7.113-8.476 3.978-10.066 3.986-29.321-3.696-46.654zm-54.128-23.986h2.5v5.84h-2.5zm54.569 69.351c-1.344 3.4-3.15 5.663-5.216 6.538-8.1 3.395-17.55-6.34-23.181-15.705a13.916 13.916 0 0 0 -11.836-6.761h-26.172a13.916 13.916 0 0 0 -11.836 6.761c-5.631 9.364-15.078 19.098-23.178 15.708-2.073-.878-3.879-3.14-5.223-6.541-3.71-9.385-3.651-27.494 3.64-43.948 7.824-17.651 15.237-22.585 22.238-22.585a21.7 21.7 0 0 1 8.022 1.8 11.214 11.214 0 0 1 5.178 3.985 1.751 1.751 0 0 0 1.428.738h25.629a1.751 1.751 0 0 0 1.429-.738 11.214 11.214 0 0 1 5.178-3.985c9.287-3.715 19.379-3.765 30.26 20.786 7.291 16.453 7.35 34.562 3.64 43.947z"/><path d="m112.767 86.266a63.145 63.145 0 0 1 .886 13.817 1.752 1.752 0 0 0 1.657 1.84h.093a1.75 1.75 0 0 0 1.746-1.658 66.726 66.726 0 0 0 -.933-14.6 1.75 1.75 0 1 0 -3.449.6z"/><path d="m43.812 69.25h-5.25v-5.25a1.749 1.749 0 0 0 -1.75-1.75h-6a1.75 1.75 0 0 0 -1.75 1.75v5.25h-5.25a1.75 1.75 0 0 0 -1.75 1.75v6a1.75 1.75 0 0 0 1.75 1.75h5.25v5.25a1.75 1.75 0 0 0 1.75 1.75h6a1.749 1.749 0 0 0 1.75-1.75v-5.25h5.25a1.749 1.749 0 0 0 1.75-1.75v-6a1.749 1.749 0 0 0 -1.75-1.75zm-1.75 6h-5.25a1.75 1.75 0 0 0 -1.75 1.75v5.25h-2.5v-5.25a1.749 1.749 0 0 0 -1.75-1.75h-5.25v-2.5h5.25a1.749 1.749 0 0 0 1.75-1.75v-5.25h2.5v5.25a1.75 1.75 0 0 0 1.75 1.75h5.25z"/><path d="m71.114 87.415h-14.228a1.75 1.75 0 0 0 0 3.5h14.228a1.75 1.75 0 0 0 0-3.5z"/><path d="m91.021 70.583a5.75 5.75 0 1 0 -5.75-5.75 5.757 5.757 0 0 0 5.75 5.75zm0-8a2.25 2.25 0 1 1 -2.25 2.25 2.253 2.253 0 0 1 2.25-2.25z"/><path d="m91.021 77.417a5.75 5.75 0 1 0 5.75 5.75 5.756 5.756 0 0 0 -5.75-5.75zm0 8a2.25 2.25 0 1 1 2.25-2.25 2.253 2.253 0 0 1 -2.25 2.25z"/><path d="m100.187 68.25a5.75 5.75 0 1 0 5.75 5.75 5.757 5.757 0 0 0 -5.75-5.75zm0 8a2.25 2.25 0 1 1 2.25-2.25 2.253 2.253 0 0 1 -2.25 2.25z"/><path d="m87.6 74a5.75 5.75 0 1 0 -5.75 5.75 5.756 5.756 0 0 0 5.75-5.75zm-5.75 2.25a2.25 2.25 0 1 1 2.25-2.25 2.253 2.253 0 0 1 -2.246 2.25z"/></g></svg>