<svg height="512pt" viewBox="0 0 512 512" width="512pt" xmlns="http://www.w3.org/2000/svg"><path d="m500.285156 138.246094-126.53125-126.53125c-7.554687-7.554688-17.597656-11.714844-28.285156-11.714844h-178.9375c-10.6875 0-20.730469 4.160156-28.285156 11.714844l-126.53125 126.53125c-7.554688 7.554687-11.714844 17.601562-11.714844 28.285156v178.9375c0 10.683594 4.160156 20.730469 11.714844 28.285156l126.53125 126.53125c7.554687 7.554688 17.597656 11.714844 28.28125 11.714844h178.941406c10.683594 0 20.730469-4.160156 28.285156-11.714844l33.394532-33.398437c3.90625-3.902344 3.90625-10.234375 0-14.140625-3.902344-3.90625-10.234376-3.90625-14.140626 0l-33.398437 33.394531c-3.773437 3.78125-8.796875 5.859375-14.140625 5.859375h-178.9375c-5.34375 0-10.367188-2.082031-14.144531-5.859375l-126.527344-126.527344c-3.777344-3.777343-5.859375-8.800781-5.859375-14.144531v-178.9375c0-5.34375 2.082031-10.367188 5.855469-14.144531l126.53125-126.527344c3.777343-3.777344 8.800781-5.859375 14.140625-5.859375h178.941406c5.34375 0 10.367188 2.082031 14.140625 5.859375l126.53125 126.527344c3.777344 3.777343 5.859375 8.800781 5.859375 14.144531v178.941406c0 5.339844-2.082031 10.363282-5.859375 14.140625l-29.492187 29.492188c-3.90625 3.90625-3.90625 10.238281 0 14.144531 3.902343 3.902344 10.238281 3.902344 14.140624 0l29.496094-29.496094c7.554688-7.554687 11.714844-17.597656 11.714844-28.28125v-178.941406c0-10.683594-4.160156-20.730469-11.714844-28.285156zm0 0"/><path d="m209.890625 40h-39.21875c-2.652344 0-5.195313 1.054688-7.070313 2.929688l-120.671874 120.671874c-1.875 1.875-2.929688 4.417969-2.929688 7.070313v170.65625c0 2.652344 1.054688 5.195313 2.929688 7.070313l120.671874 120.671874c1.875 1.875 4.417969 2.929688 7.070313 2.929688h170.65625c2.652344 0 5.195313-1.054688 7.070313-2.929688l120.671874-120.671874c1.875-1.875 2.929688-4.417969 2.929688-7.070313v-170.65625c0-2.652344-1.054688-5.195313-2.929688-7.070313l-120.671874-120.671874c-1.875-1.875-4.417969-2.929688-7.070313-2.929688h-41.042969c-5.523437 0-10 4.476562-10 10s4.476563 10 10 10h36.902344l114.8125 114.8125v162.375l-114.8125 114.8125h-162.375l-114.8125-114.8125v-162.375l114.8125-114.8125h35.078125c5.519531 0 10-4.476562 10-10s-4.480469-10-10-10zm0 0"/><path d="m127.757812 215.347656h24.609376c5.523437 0 10-4.476562 10-10 0-5.523437-4.476563-10-10-10h-24.609376c-19.085937 0-34.609374 15.527344-34.609374 34.613282v.648437c0 19.085937 15.523437 34.609375 34.609374 34.609375 8.058594 0 14.609376 6.554688 14.609376 14.613281v2.207031c0 8.058594-6.554688 14.609376-14.609376 14.609376h-24.609374c-5.523438 0-10 4.480468-10 10 0 5.523437 4.476562 10 10 10h24.609374c19.085938 0 34.609376-15.523438 34.609376-34.609376v-2.207031c0-19.085937-15.523438-34.613281-34.609376-34.613281-8.058593 0-14.609374-6.554688-14.609374-14.609375v-.648437c0-8.058594 6.554687-14.613282 14.609374-14.613282zm0 0"/><path d="m373.628906 306.652344v-38.585938h12.863282c20.046874 0 36.359374-16.308594 36.359374-36.359375 0-20.046875-16.3125-36.359375-36.359374-36.359375h-22.863282c-5.523437 0-10 4.476563-10 10v101.304688c0 5.523437 4.476563 10 10 10 5.523438 0 10-4.476563 10-10zm0-91.304688h12.863282c9.023437 0 16.359374 7.339844 16.359374 16.359375s-7.335937 16.359375-16.359374 16.359375h-12.863282zm0 0"/><path d="m208.890625 316.652344c5.523437 0 10-4.476563 10-10v-91.304688h14.613281c5.523438 0 10-4.476562 10-10 0-5.523437-4.476562-10-10-10h-49.222656c-5.523438 0-10 4.476563-10 10 0 5.523438 4.476562 10 10 10h14.609375v91.304688c0 5.523437 4.476563 10 10 10zm0 0"/><path d="m262.992188 282.039062c0 19.085938 15.527343 34.613282 34.609374 34.613282 19.085938 0 34.613282-15.527344 34.613282-34.613282v-52.078124c0-19.085938-15.527344-34.613282-34.613282-34.613282-19.082031 0-34.609374 15.527344-34.609374 34.613282zm20-52.078124c0-8.058594 6.554687-14.613282 14.609374-14.613282 8.058594 0 14.613282 6.554688 14.613282 14.613282v52.078124c0 8.058594-6.554688 14.613282-14.613282 14.613282-8.054687 0-14.609374-6.554688-14.609374-14.613282zm0 0"/><path d="m265.179688 46.179688c-1.582032-3.859376-5.566407-6.378907-9.734376-6.15625-4.0625.214843-7.648437 2.917968-8.964843 6.765624-1.359375 3.976563.007812 8.546876 3.339843 11.113282 3.292969 2.535156 7.863282 2.757812 11.402344.582031 4.109375-2.523437 5.808594-7.859375 3.957032-12.304687zm0 0"/><path d="m443.429688 424.75c-1.636719-3.929688-5.695313-6.457031-9.949219-6.148438-4.144531.300782-7.746094 3.242188-8.894531 7.234376-1.152344 4.003906.390624 8.453124 3.792968 10.867187 3.367188 2.394531 7.925782 2.46875 11.371094.1875 3.941406-2.613281 5.464844-7.789063 3.679688-12.140625zm0 0"/></svg>