<svg height="512" viewBox="0 0 64 64" width="512" xmlns="http://www.w3.org/2000/svg"><g id="Circuit-technology-electronics"><path d="m3 3h58v58h-58z" fill="#007579"/><path d="m17 34h3v3h-3z" fill="#78b9eb"/><path d="m17 21h3v3h-3z" fill="#78b9eb"/><path d="m17 27h3v3h-3z" fill="#78b9eb"/><path d="m17 40h3v3h-3z" fill="#78b9eb"/><circle cx="16" cy="56" fill="#e0e0e2" r="2"/><circle cx="8" cy="47" fill="#e0e0e2" r="2"/><path d="m44 34h3v3h-3z" fill="#78b9eb"/><path d="m44 40h3v3h-3z" fill="#78b9eb"/><path d="m44 27h3v3h-3z" fill="#78b9eb"/><path d="m44 21h3v3h-3z" fill="#78b9eb"/><path d="m49 52a3 3 0 0 1 0 6h-8a3 3 0 0 1 0-6z" fill="#ff9811"/><path d="m34 17h3v3h-3z" fill="#78b9eb"/><path d="m40 17h3v3h-3z" fill="#78b9eb"/><path d="m27 17h3v3h-3z" fill="#78b9eb"/><path d="m21 17h3v3h-3z" fill="#78b9eb"/><circle cx="8" cy="24" fill="#e0e0e2" r="2"/><circle cx="8" cy="8" fill="#e0e0e2" r="2"/><path d="m14 6h4v8h-4z" fill="#ff5023"/><path d="m47 6h8v3h-8z" fill="#ffda44"/><path d="m47 12h8v3h-8z" fill="#ffda44"/><path d="m20 20h24v24h-24z" fill="#3e3d42"/><g fill="#e0e0e2"><path d="m21 17h3v3h-3z"/><path d="m27 17h3v3h-3z"/><path d="m34 17h3v3h-3z"/><path d="m40 17h3v3h-3z"/><path d="m44 21h3v3h-3z"/><path d="m44 27h3v3h-3z"/><path d="m44 34h3v3h-3z"/><path d="m44 40h3v3h-3z"/><path d="m34 44h3v3h-3z"/><path d="m40 44h3v3h-3z"/><path d="m27 44h3v3h-3z"/><path d="m21 44h3v3h-3z"/><path d="m17 40h3v3h-3z"/><path d="m17 34h3v3h-3z"/><path d="m17 27h3v3h-3z"/><path d="m17 21h3v3h-3z"/></g><circle cx="24" cy="24" fill="#ff5023" r="1"/><path d="m61 2h-58a1 1 0 0 0 -1 1v58a1 1 0 0 0 1 1h58a1 1 0 0 0 1-1v-58a1 1 0 0 0 -1-1zm-1 18h-3.28a2 2 0 1 0 0 2h3.28v38h-56v-56h56z"/><path d="m47 25a1 1 0 0 0 1-1v-3a1 1 0 0 0 -1-1h-2a1 1 0 0 0 -1-1v-2a1 1 0 0 0 -1-1h-3a1 1 0 0 0 -1 1v2h-1v-2a1 1 0 0 0 -1-1h-3a1 1 0 0 0 -1 1v2h-2v-2a1 1 0 0 0 -1-1h-3a1 1 0 0 0 -1 1v2h-1v-2a1 1 0 0 0 -1-1h-3a1 1 0 0 0 -1 1v2a1 1 0 0 0 -1 1h-2a1 1 0 0 0 -1 1v3a1 1 0 0 0 1 1h2v1h-2a1 1 0 0 0 -1 1v3a1 1 0 0 0 1 1h2v2h-2a1 1 0 0 0 -1 1v3a1 1 0 0 0 1 1h2v1h-2a1 1 0 0 0 -1 1v3a1 1 0 0 0 1 1h2a1 1 0 0 0 1 1v2a1 1 0 0 0 1 1h3a1 1 0 0 0 1-1v-2h1v2a1 1 0 0 0 1 1h3a1 1 0 0 0 1-1v-2h2v2a1 1 0 0 0 1 1h3a1 1 0 0 0 1-1v-2h1v2a1 1 0 0 0 1 1h3a1 1 0 0 0 1-1v-2a1 1 0 0 0 1-1h2a1 1 0 0 0 1-1v-3a1 1 0 0 0 -1-1h-2v-1h2a1 1 0 0 0 1-1v-3a1 1 0 0 0 -1-1h-2v-2h2a1 1 0 0 0 1-1v-3a1 1 0 0 0 -1-1h-2v-1zm-2-3h1v1h-1zm-26 20h-1v-1h1zm0-6h-1v-1h1zm0-7h-1v-1h1zm0-6h-1v-1h1zm22-5h1v1h-1zm-6 0h1v1h-1zm-7 0h1v1h-1zm-6 0h1v1h-1zm1 28h-1v-1h1zm6 0h-1v-1h1zm7 0h-1v-1h1zm6 0h-1v-1h1zm1-3h-22v-22h22zm3-2v1h-1v-1zm0-6v1h-1v-1zm0-7v1h-1v-1z"/><circle cx="24" cy="24" r="2"/><path d="m47 10h8a1 1 0 0 0 1-1v-3a1 1 0 0 0 -1-1h-8a1 1 0 0 0 -1 1v3a1 1 0 0 0 1 1zm1-3h6v1h-6z"/><path d="m47 16h8a1 1 0 0 0 1-1v-3a1 1 0 0 0 -1-1h-8a1 1 0 0 0 -1 1v3a1 1 0 0 0 1 1zm1-3h6v1h-6z"/><path d="m5 24a3 3 0 1 0 4-2.816v-10.368a3 3 0 1 0 -2 0v10.368a3 3 0 0 0 -2 2.816zm3 1a1 1 0 1 1 1-1 1 1 0 0 1 -1 1zm0-18a1 1 0 1 1 -1 1 1 1 0 0 1 1-1z"/><path d="m16 53a3 3 0 0 0 -2.816 2h-2.649l-1.535-2.3v-2.884a3 3 0 1 0 -2 0v3.184a1.006 1.006 0 0 0 .168.555l2 3a1 1 0 0 0 .832.445h3.184a2.995 2.995 0 1 0 2.816-4zm-8-7a1 1 0 1 1 -1 1 1 1 0 0 1 1-1zm8 11a1 1 0 1 1 1-1 1 1 0 0 1 -1 1z"/><path d="m56 53a1.993 1.993 0 0 0 -1.722 1h-1.42a4 4 0 0 0 -3.858-3h-8a4 4 0 0 0 -3.858 3h-1.42a2 2 0 1 0 0 2h1.42a4 4 0 0 0 3.858 3h8a4 4 0 0 0 3.858-3h1.42a2 2 0 1 0 1.722-3zm-7 4h-8a2 2 0 0 1 0-4h8a2 2 0 0 1 0 4z"/><path d="m54 35.722v9.278h-1.278a2 2 0 1 0 0 2h2.278a1 1 0 0 0 1-1v-10.278a2 2 0 1 0 -2 0z"/><path d="m14 15h4a1 1 0 0 0 1-1v-8a1 1 0 0 0 -1-1h-4a1 1 0 0 0 -1 1v8a1 1 0 0 0 1 1zm1-8h2v6h-2z"/><path d="m24 10a1.993 1.993 0 0 0 1.722-1h7.556a2 2 0 1 0 0-2h-7.556a2 2 0 1 0 -1.722 3z"/></g></svg>