<svg height="480pt" viewBox="0 0 480.00068 480" width="480pt" xmlns="http://www.w3.org/2000/svg"><path d="m405.039062 141.839844 21.601563-43.28125-45.199219-45.199219-43.28125 21.601563c-15.855468-9.429688-32.996094-16.515626-50.878906-21.039063l-15.28125-45.921875h-64l-15.28125 45.921875c-17.882812 4.523437-35.023438 11.609375-50.878906 21.039063l-43.28125-21.601563-45.199219 45.199219 21.601563 43.28125c-9.429688 15.855468-16.519532 32.996094-21.039063 50.878906l-45.921875 15.28125v64l45.921875 15.28125c4.519531 17.886719 11.609375 35.023438 21.039063 50.878906l-21.601563 43.28125 45.199219 45.199219 43.28125-21.601563c15.855468 9.429688 32.996094 16.519532 50.878906 21.042969l15.28125 45.917969h64l13.519531-40.71875c-14-18.121094-21.570312-40.382812-21.519531-63.28125-.015625-3.5.171875-7 .558594-10.480469-8.082032 1.640625-16.308594 2.472657-24.558594 2.480469-66.273438 0-120-53.726562-120-120s53.726562-120 120-120 120 53.726562 120 120c-.007812 8.25-.839844 16.476562-2.480469 24.558594 3.480469-.386719 6.980469-.574219 10.480469-.558594 22.898438-.050781 45.160156 7.519531 63.28125 21.519531l40.71875-13.519531v-64l-45.921875-15.28125c-4.519531-17.882812-11.609375-35.023438-21.039063-50.878906zm0 0" fill="#ff5023"/><path d="m357.519531 264.558594c1.640625-8.082032 2.472657-16.308594 2.480469-24.558594 0-66.273438-53.726562-120-120-120s-120 53.726562-120 120 53.726562 120 120 120c8.25-.007812 16.476562-.839844 24.558594-2.480469 4.992187-49.125 43.835937-87.96875 92.960937-92.960937zm0 0" fill="#fff3c1"/><path d="m357.519531 264.558594c-49.125 4.992187-87.96875 43.835937-92.960937 92.960937-.386719 3.480469-.574219 6.980469-.558594 10.480469.027344 57.398438 46.570312 103.914062 103.96875 103.90625 57.398438-.011719 103.925781-46.539062 103.933594-103.9375.011718-57.398438-46.503906-103.941406-103.902344-103.96875-3.5-.015625-7 .171875-10.480469.558594zm26.480469 175.441406h-32v-24h32zm0-48h-32v-96h32zm0 0" fill="#ffda44"/><path d="m352 296h32v96h-32zm0 0" fill="#d80027"/><path d="m352 416h32v24h-32zm0 0" fill="#d80027"/><g fill="#231f20"><path d="m480 202.230469-47.289062-15.734375c-4.34375-15.667969-10.585938-30.746094-18.589844-44.894532l22.253906-44.59375-53.351562-53.382812-44.625 22.253906c-14.160157-8.007812-29.246094-14.25-44.925782-18.589844l-15.703125-47.289062h-75.539062l-15.734375 47.289062c-15.667969 4.34375-30.746094 10.585938-44.894532 18.589844l-44.625-22.253906-53.351562 53.351562 22.253906 44.625c-8.007812 14.160157-14.25 29.25-18.589844 44.925782l-47.289062 15.703125v75.539062l47.289062 15.734375c4.34375 15.667969 10.585938 30.746094 18.589844 44.894532l-22.253906 44.625 53.351562 53.351562 44.625-22.253906c14.160157 8.007812 29.246094 14.25 44.925782 18.589844l15.703125 47.289062h75.546875l10.949218-32.976562c20.921876 21.195312 49.492188 33.078124 79.273438 32.976562 61.828125-.066406 111.933594-50.171875 112-112 .105469-29.78125-11.78125-58.351562-32.976562-79.273438l32.976562-10.949218zm-112 261.769531c-52.992188-.0625-95.9375-43.007812-96-96-.015625-3.238281.15625-6.472656.519531-9.6875.289063-2.820312.691407-5.609375 1.207031-8.367188 8.035157-41.691406 42.472657-73.167968 84.714844-77.433593h.078125c3.148438-.359375 6.3125-.53125 9.480469-.511719 2.667969 0 5.316406.105469 7.953125.320312 18.359375 1.464844 35.894531 8.257813 50.445313 19.550782 23.800781 18.058594 37.726562 46.253906 37.601562 76.128906-.058594 52.996094-43.003906 95.941406-96 96zm-17.328125-206.625c-.648437.097656-1.273437.265625-1.917969.378906-1.417968.246094-2.808594.527344-4.203125.796875-1.679687.355469-3.351562.746094-5 1.175781-1.375.363282-2.738281.75-4.09375 1.160157-1.601562.488281-3.199219 1.027343-4.800781 1.601562-1.328125.472657-2.65625.953125-4 1.472657-1.601562.625-3.089844 1.296874-4.609375 1.984374-1.277344.574219-2.550781 1.144532-3.808594 1.765626-1.496093.746093-2.949219 1.554687-4.40625 2.402343-1.214843.671875-2.449219 1.328125-3.632812 2.046875-1.421875.863282-2.800781 1.792969-4.183594 2.710938-1.152344.800781-2.320313 1.511718-3.441406 2.320312-1.359375.976563-2.652344 2.03125-4 3.074219-1.070313.847656-2.167969 1.65625-3.199219 2.542969-1.320312 1.128906-2.566406 2.335937-3.839844 3.527344-2.027344 1.886718-3.976562 3.855468-5.855468 5.894531-.960938 1.050781-1.960938 2.058593-2.886719 3.136719-1.105469 1.296874-2.121094 2.664062-3.199219 4-.800781 1.03125-1.601562 2.03125-2.402344 3.089843-1.015625 1.398438-1.945312 2.847657-2.886718 4.296875-.710938 1.078125-1.441407 2.140625-2.113282 3.246094-.894531 1.472656-1.71875 2.992188-2.550781 4.511719-.617187 1.144531-1.257813 2.273437-1.839844 3.441406-.800781 1.542969-1.480469 3.121094-2.183593 4.695313-.539063 1.207031-1.074219 2.398437-1.601563 3.648437-.640625 1.597656-1.222656 3.199219-1.792969 4.800781-.445312 1.292969-.886718 2.589844-1.292968 3.910156-.492188 1.601563-.945313 3.199219-1.363282 4.800782-.375 1.433594-.703125 2.871094-1.023437 4.320312-.320313 1.449219-.65625 3.113282-.917969 4.6875-.105469.617188-.265625 1.207032-.359375 1.824219-5.714844.882813-11.484375 1.335937-17.265625 1.359375-61.855469 0-112-50.144531-112-112s50.144531-112 112-112 112 50.144531 112 112c-.007812 5.816406-.449219 11.625-1.328125 17.375zm113.328125 8.847656-31.296875 10.402344c-.695313-.496094-1.429687-.921875-2.144531-1.402344-1.160156-.796875-2.335938-1.597656-3.519532-2.316406-1.34375-.84375-2.703124-1.601562-4.070312-2.402344-1.207031-.6875-2.402344-1.367187-3.648438-2.007812-1.410156-.734375-2.839843-1.40625-4.28125-2.078125-1.230468-.578125-2.464843-1.160157-3.71875-1.691407-1.480468-.621093-2.984374-1.175781-4.496093-1.734374-1.25-.464844-2.496094-.953126-3.761719-1.367188-1.597656-.519531-3.199219-.953125-4.796875-1.402344-1.242187-.351562-2.472656-.726562-3.730469-1.03125-1.695312-.40625-3.414062-.726562-5.136718-1.054687-1.183594-.230469-2.398438-.503907-3.550782-.695313-1.945312-.304687-3.910156-.511718-5.878906-.722656-1-.101562-1.984375-.261719-2.984375-.34375-2.945313-.246094-5.953125-.375-8.984375-.375-.390625 0-.726562 0-1.105469 0 .691407-5.304688 1.0625-10.648438 1.105469-16 0-70.691406-57.308594-128-128-128s-128 57.308594-128 128 57.308594 128 128 128c5.351562-.042969 10.695312-.414062 16-1.105469v1.105469c0 3.03125.128906 6.039062.359375 9.023438.082031 1.007812.242187 2 .351563 3 .210937 1.960937.410156 3.921874.714843 5.855468.191407 1.21875.46875 2.402344.703125 3.601563.328125 1.703125.640625 3.40625 1.046875 5.078125.3125 1.28125.695313 2.546875 1.046875 3.808594.441406 1.601562.875 3.128906 1.378906 4.671874.429688 1.304688.925782 2.578126 1.398438 3.867188.542969 1.460938 1.089844 2.925781 1.695312 4.367188.542969 1.304687 1.152344 2.582031 1.746094 3.863281.589844 1.28125 1.300782 2.769531 2.007813 4.128906.703125 1.359375 1.367187 2.519531 2.070312 3.765625.703125 1.25 1.527344 2.65625 2.351563 4 .824218 1.34375 1.542968 2.402344 2.351562 3.59375.480469.695312.898438 1.421875 1.394532 2.121094l-10.394532 31.253906h-52.453125l-14.847656-44.609375-4.257813-1.070313c-17.132812-4.339843-33.550781-11.128906-48.742187-20.160156l-3.753906-2.222656-42.015625 20.96875-37.054688-37.058594 20.964844-42.015625-2.222656-3.75c-9.03125-15.195312-15.820313-31.613281-20.160156-48.746093l-1.070313-4.253907-44.609375-14.851562v-52.460938l44.609375-14.847656 1.070313-4.257813c4.339843-17.132812 11.128906-33.550781 20.160156-48.742187l2.222656-3.753906-20.964844-42.015625 37.054688-37.054688 42.015625 20.964844 3.753906-2.222656c15.191406-9.03125 31.609375-15.820313 48.742187-20.160156l4.257813-1.070313 14.847656-44.609375h52.460938l14.847656 44.609375 4.257813 1.070313c17.132812 4.339843 33.550781 11.128906 48.742187 20.160156l3.753906 2.222656 42.015625-20.964844 37.054688 37.054688-20.964844 42.015625 2.222656 3.753906c9.03125 15.191406 15.820313 31.609375 20.160156 48.742187l1.070313 4.257813 44.609375 14.847656zm0 0"/><path d="m344 400h48v-112h-48zm16-96h16v80h-16zm0 0"/><path d="m344 448h48v-40h-48zm16-24h16v8h-16zm0 0"/></g></svg>